<?xml version="1.0" encoding="UTF-8"?>
<!DOCTYPE svg PUBLIC "-//W3C//DTD SVG 1.1//EN" "http://www.w3.org/Graphics/SVG/1.1/DTD/svg11.dtd">
<svg xmlns="http://www.w3.org/2000/svg" version="1.1" width="128px" height="128px" style="shape-rendering:geometricPrecision; text-rendering:geometricPrecision; image-rendering:optimizeQuality; fill-rule:evenodd; clip-rule:evenodd" xmlns:xlink="http://www.w3.org/1999/xlink">
<g><path style="opacity:1" fill="#fefefe" d="M -0.5,-0.5 C 42.1667,-0.5 84.8333,-0.5 127.5,-0.5C 127.5,42.1667 127.5,84.8333 127.5,127.5C 84.8333,127.5 42.1667,127.5 -0.5,127.5C -0.5,84.8333 -0.5,42.1667 -0.5,-0.5 Z"/></g>
<g><path style="opacity:1" fill="#5f5f5f" d="M 55.5,57.5 C 55.6567,56.1266 55.49,54.7932 55,53.5C 54.79,55.0581 54.29,56.3915 53.5,57.5C 53.1814,55.2495 53.6814,53.2495 55,51.5C 56.7074,53.4833 56.874,55.4833 55.5,57.5 Z"/></g>
<g><path style="opacity:1" fill="#6c6c6c" d="M 85.5,58.5 C 85.7845,56.5853 85.4511,54.9187 84.5,53.5C 84.3932,51.6214 84.8932,51.2881 86,52.5C 86.7891,54.7116 86.6225,56.7116 85.5,58.5 Z"/></g>
<g><path style="opacity:1" fill="#222222" d="M 53.5,57.5 C 54.29,56.3915 54.79,55.0581 55,53.5C 55.49,54.7932 55.6567,56.1266 55.5,57.5C 53.8621,62.9866 50.1955,64.8199 44.5,63C 40.4916,59.7646 39.6583,55.9313 42,51.5C 41.3638,58.8316 44.5305,61.9983 51.5,61C 52.305,59.8873 52.9717,58.7206 53.5,57.5 Z"/></g>
<g><path style="opacity:1" fill="#fd6586" d="M 34.5,62.5 C 37.9297,62.1065 41.0964,62.7732 44,64.5C 45.5,71.6667 42.6667,74.5 35.5,73C 31.9351,69.7842 31.6017,66.2842 34.5,62.5 Z"/></g>
<g><path style="opacity:1" fill="#2b2b2b" d="M 84.5,53.5 C 85.4511,54.9187 85.7845,56.5853 85.5,58.5C 85.0844,60.7525 83.751,62.2525 81.5,63C 76.0044,64.8902 72.5044,63.0569 71,57.5C 70.5045,55.5273 70.3379,53.5273 70.5,51.5C 71.5,51.5 72.5,51.5 73.5,51.5C 73.1065,54.9297 73.7732,58.0964 75.5,61C 81.6323,62.373 84.6323,59.873 84.5,53.5 Z"/></g>
<g><path style="opacity:1" fill="#fd6183" d="M 85.5,62.5 C 93.9932,61.4707 96.3266,64.6373 92.5,72C 85.2434,74.7463 82.0768,72.2463 83,64.5C 83.9947,63.9341 84.828,63.2674 85.5,62.5 Z"/></g>
<g><path style="opacity:1" fill="#4e4e4e" d="M 57.5,63.5 C 59.1765,64.1834 59.8432,65.5168 59.5,67.5C 61.143,67.5198 62.4763,66.8532 63.5,65.5C 66.1849,68.3045 67.8516,67.6379 68.5,63.5C 70.088,66.4684 69.2546,68.4684 66,69.5C 63.8824,68.8041 61.7158,68.6374 59.5,69C 57.8446,67.5557 57.178,65.7224 57.5,63.5 Z"/></g>
</svg>
